<svg width="48" height="68" viewBox="0 0 48 68" fill="none" xmlns="http://www.w3.org/2000/svg">
<path fill-rule="evenodd" clip-rule="evenodd" d="M22.416 61.7533C22.4155 61.7442 22.4081 61.7371 22.3991 61.7369C21.2285 61.7077 20.0305 61.5934 18.8515 61.2629C18.4207 61.1423 17.9805 61.0236 17.5664 60.8234C16.8372 60.4765 16.1595 59.9804 15.6261 59.3637C15.3569 59.0509 15.1263 58.7376 14.9199 58.3665C14.7035 57.9953 14.5773 57.5645 14.527 57.1324C14.476 56.7476 14.517 56.3515 14.6115 55.9779C14.7141 55.603 14.8969 55.2617 15.1101 54.9496C15.6827 54.1638 16.6532 53.6932 17.559 53.7796C17.8431 53.7976 17.8027 53.9443 17.6205 54.1669C17.4259 54.364 17.1636 54.7656 16.872 54.9857C16.5916 55.1759 16.4294 55.4625 16.2484 55.6795C16.0812 55.9164 15.9737 56.1762 15.9258 56.4404C15.8543 56.7003 15.8412 56.9795 15.8966 57.2698C15.9538 57.5589 16.0974 57.8467 16.2926 58.1868C16.5301 58.5642 16.8571 58.8924 17.2345 59.1604C17.6187 59.4215 18.0476 59.6241 18.4897 59.8013C19.467 60.1887 20.5661 60.3578 21.6765 60.428C22.3622 60.4672 23.0585 60.4771 23.7436 60.438C24.7837 60.377 25.8325 60.2477 26.8179 59.9425C27.5901 59.7267 28.305 59.3972 28.987 59.0217C29.1387 58.9403 29.2798 58.8495 29.4278 58.7619C29.9774 58.4361 30.1838 58.377 30.4337 58.4666C30.4897 58.4864 30.5537 58.4976 30.5984 58.5231C30.7396 58.5928 30.6351 58.9092 30.2553 59.2698C29.6889 59.7957 29.0274 60.262 28.3075 60.6363C27.9469 60.8203 27.5764 60.9993 27.1909 61.1361C26.8017 61.2586 26.4051 61.3618 26.0054 61.4426C24.8252 61.6914 23.618 61.7714 22.4333 61.7697C22.4241 61.7696 22.4165 61.7625 22.416 61.7533Z" fill="#231F20"/>
<path fill-rule="evenodd" clip-rule="evenodd" d="M25.6241 62.1952C25.6225 62.1906 25.6177 62.1881 25.6131 62.1893C24.9785 62.3573 24.3329 62.4773 23.6854 62.5763C23.446 62.6086 23.2116 62.6397 22.9717 62.6721C22.1262 62.733 21.2757 62.7143 20.4376 62.5968C20.0646 62.5477 19.6928 62.4818 19.326 62.4041C18.861 62.2866 18.3723 62.1672 17.9757 61.8614C17.8495 61.7718 17.9496 61.6568 18.1286 61.586C18.312 61.512 18.5483 61.4939 18.7845 61.5692C19.6101 61.8788 20.5153 62.018 21.4435 62.0995C22.0018 62.1418 22.5856 62.0802 23.1532 61.9981C23.7811 61.9266 24.4041 61.7973 25.0214 61.6432C25.4019 61.5524 25.7755 61.4274 26.1498 61.3118L26.9928 61.0127C27.2682 60.9008 27.5418 60.7821 27.8116 60.6596C28.2244 60.4557 28.608 60.2145 29.0077 60L29.2657 59.8489C29.5952 59.6705 29.7258 59.6568 29.8538 59.7109C29.8831 59.724 29.9173 59.7327 29.9396 59.7488C30.0136 59.8004 29.921 59.9434 29.7065 60.1312C29.0742 60.6944 28.3114 61.1582 27.4976 61.5207C26.9027 61.8054 26.274 62.0248 25.6352 62.201C25.6306 62.2023 25.6257 62.1997 25.6241 62.1952Z" fill="#231F20"/>
<path fill-rule="evenodd" clip-rule="evenodd" d="M26.8556 66.1903C26.8604 66.1941 26.8673 66.194 26.8719 66.19C27.0705 66.0182 27.2409 65.7763 27.3973 65.523C27.4582 65.4316 27.4806 65.3153 27.5378 65.2183C27.733 64.8658 27.9052 64.4847 28.0762 64.0906C28.1583 63.919 28.218 63.7356 28.2851 63.5528C28.3759 63.3209 28.4343 63.0573 28.6954 62.8677C28.77 62.8092 28.8558 62.9261 28.9342 63.0679C29.0088 63.2177 29.0995 63.342 29.0759 63.4627C28.9628 63.8518 28.9136 64.3567 28.6333 64.7937C28.4816 65.0598 28.4194 65.3762 28.2839 65.6672C28.1402 65.988 27.9475 66.297 27.7318 66.5904C27.5764 66.7595 27.4402 66.9392 27.2512 67.0797C27.116 67.1897 26.9707 67.2867 26.8173 67.3696L26.8142 67.3713C26.665 67.467 26.4971 67.5155 26.3342 67.577C26.2093 67.6349 26.0843 67.674 25.9544 67.7101C25.8269 67.7437 25.6926 67.8046 25.5608 67.8152C25.503 67.8226 25.4458 67.8239 25.3868 67.8189C25.1685 67.7915 25.1045 67.7256 25.0883 67.5062C25.084 67.4595 25.0771 67.4142 25.0771 67.3719C25.0778 67.2388 25.1766 67.0716 25.3034 67.0113C25.692 66.8186 25.9811 66.7552 26.264 66.6171C26.4501 66.4947 26.6633 66.3934 26.8378 66.1921C26.8423 66.1868 26.8502 66.186 26.8556 66.1903Z" fill="#231F20"/>
<path fill-rule="evenodd" clip-rule="evenodd" d="M17.0799 55.2343C17.0747 55.2269 17.0651 55.224 17.0567 55.2275C16.9037 55.2906 16.7249 55.3609 16.5699 55.4808C16.5127 55.5262 16.4785 55.5909 16.4214 55.6375C16.2125 55.801 16.0067 55.9925 15.855 56.2188C15.799 56.3183 15.7642 56.4358 15.7711 56.5383C15.7673 56.6844 15.8195 56.7628 15.7114 56.8753C15.6728 56.9132 15.4329 57.0257 15.1649 57.0543C14.9063 57.0979 14.5681 56.9741 14.5413 56.8026C14.4711 56.4954 14.5314 56.2269 14.6253 56.0031C14.716 55.7736 14.8565 55.5853 15.0256 55.4261C15.232 55.244 15.3234 54.9934 15.5037 54.8001C15.7039 54.5924 15.9252 54.4065 16.1776 54.2542C16.3256 54.1554 16.5009 54.0882 16.6663 54.0142C16.9261 53.9058 17.2105 53.8584 17.4912 53.8372C17.4946 53.8369 17.4979 53.8367 17.5012 53.8364C17.615 53.8346 17.7313 53.8072 17.85 53.8022C17.9663 53.8078 18.0894 53.8141 18.2112 53.834C18.2672 53.8377 18.3082 53.8681 18.353 53.8961C18.5084 54.0192 18.5121 54.1268 18.4008 54.3487C18.3753 54.3997 18.3517 54.4501 18.3231 54.4973C18.2274 54.6527 18.0838 54.7634 17.9725 54.8231C17.6268 55.0183 17.6088 55.0755 17.4627 55.1097C17.3716 55.1301 17.2406 55.1701 17.1048 55.2404C17.0962 55.2448 17.0855 55.2423 17.0799 55.2343Z" fill="#231F20"/>
<path fill-rule="evenodd" clip-rule="evenodd" d="M6.40231 44.78C6.40553 44.7763 6.40552 44.7707 6.4023 44.767C4.91495 43.0417 3.57473 41.1732 2.50303 39.149C2.29601 38.7853 2.11634 38.4073 1.93977 38.0275C1.75264 37.6526 1.58416 37.2702 1.44055 36.8761C0.343878 34.1344 -0.104365 31.1409 0.114472 28.2146C0.149909 27.5643 0.258084 26.9184 0.336418 26.2724C0.475678 25.637 0.55339 24.988 0.73679 24.3688C1.10297 22.7592 1.7284 21.159 2.69762 19.8074C3.00225 19.3877 3.02961 19.4959 2.88164 19.9118C2.72746 20.3277 2.46884 21.0806 2.12566 21.9348C1.97397 22.3147 1.83968 22.702 1.71969 23.0924C1.59846 23.481 1.5164 23.8901 1.40076 24.2842C1.28761 24.6809 1.18566 25.0794 1.11789 25.486C1.04702 25.8913 0.940085 26.2911 0.897188 26.7008C0.637319 28.3284 0.618046 29.9895 0.776579 31.6401C0.964953 33.6202 1.58168 35.6277 2.4421 37.4729C3.37776 39.5102 4.57639 41.4344 5.98578 43.1994C6.84185 44.2942 7.76756 45.338 8.74113 46.3339C10.209 47.8509 11.7837 49.2808 13.3889 50.6355C14.6379 51.6892 15.9087 52.6647 17.1651 53.6892C17.4405 53.9168 17.7178 54.1294 17.9864 54.3712C18.9917 55.2541 19.2634 55.5972 19.3628 55.9037C19.3864 55.9727 19.4262 56.0548 19.4318 56.102C19.448 56.2637 18.9991 55.9528 18.2487 55.3423C16.0075 53.5475 13.581 51.6886 11.2745 49.6501C9.56577 48.1363 7.90846 46.535 6.40234 44.7931C6.39911 44.7893 6.3991 44.7838 6.40231 44.78Z" fill="#231F20"/>
<path fill-rule="evenodd" clip-rule="evenodd" d="M3.42615 18.6274C3.43637 18.6318 3.44832 18.6287 3.45501 18.6198C4.4311 17.3186 5.57965 16.1735 6.83246 15.1684C8.11937 14.1998 9.49705 13.3655 10.9524 12.6972C13.8732 11.3991 17.0612 10.6916 20.2717 10.7923C21.443 10.8284 22.6117 10.9633 23.742 11.1877C24.3115 11.3002 24.8791 11.4358 25.4417 11.6018C26.0043 11.7646 26.5545 12.0027 27.1078 12.206C29.0252 13.0441 30.7311 14.3347 32.0914 15.8933C33.4579 17.4513 34.488 19.2654 35.1943 21.1746C36.6291 24.9968 36.9045 29.146 36.3699 33.11C36.156 34.8762 35.7805 36.6188 35.3167 38.3279C34.8685 40.0438 34.2797 41.7111 33.6543 43.3481C32.848 45.4519 31.8806 47.4948 30.802 49.4724C29.732 51.455 28.516 53.3543 27.1961 55.1665C26.3687 56.2949 26.3276 56.0326 26.7951 54.9309C27.0345 54.3844 27.3727 53.611 27.8048 52.699C28.2213 51.7777 28.7373 50.7214 29.3267 49.5955C30.3774 47.6005 31.2769 45.5371 32.138 43.4681C32.981 41.3904 33.7009 39.2654 34.2443 37.0994C35.341 32.7786 35.6798 28.2377 34.6354 23.9051C34.317 22.6176 33.87 21.3487 33.2807 20.1426C32.6888 18.9372 31.9223 17.8169 31.0276 16.819C30.1299 15.8249 29.0935 14.9471 27.9229 14.2981C26.7541 13.6478 25.5126 13.1498 24.1896 12.8433C18.4016 11.3947 11.9496 12.9011 7.31365 16.7071C5.8968 17.8796 4.66522 19.2822 3.76128 20.8756C3.5586 21.2853 3.34101 21.6894 3.14766 22.1028L2.67206 23.3885C2.43458 24.2837 2.18714 25.1802 2.06653 26.1003L1.98012 26.6195L1.9366 27.1442L1.85329 28.1942L1.86013 29.248L1.86572 29.7746L1.91484 30.2999C1.99877 31.7062 2.32329 33.0882 2.72242 34.4392C3.13025 35.792 3.719 37.0845 4.35935 38.3447C5.02954 39.5912 5.78925 40.7879 6.61549 41.935C9.21293 45.496 12.4109 48.4547 15.6898 51.3512C16.4147 51.9897 17.1371 52.5995 17.8589 53.2635C20.5402 55.6975 21.2689 56.7662 21.4088 57.6316C21.4392 57.8293 21.4722 58.0773 21.456 58.1898C21.4398 58.2874 21.3789 58.2781 21.2745 58.1905C21.1651 58.1022 21.0513 57.9312 20.8188 57.7111C20.3917 57.2648 19.6817 56.5697 18.6988 55.7074C15.7532 53.179 12.5838 50.6076 9.6848 47.6328C6.79143 44.6686 4.08332 41.2971 2.3034 37.3356C1.64005 35.8709 1.14331 34.321 0.798892 32.7338C0.447633 31.1442 0.358109 29.4998 0.408466 27.8716C0.468771 26.2371 0.793296 24.6319 1.21667 23.0658C1.70772 21.4806 2.45412 19.9842 3.39688 18.6356C3.40343 18.6262 3.41569 18.6228 3.42615 18.6274Z" fill="#231F20"/>
<path fill-rule="evenodd" clip-rule="evenodd" d="M19.5184 60.7219C19.5175 60.7312 19.5239 60.7396 19.533 60.7413C21.113 61.0283 22.7926 60.9799 24.4395 60.7116C25.0381 60.6065 25.6449 60.4399 26.2256 60.3125C27.2023 60.0594 28.1976 59.5944 29.1059 59.0554C30.0123 58.5077 30.8578 57.8369 31.4472 57.0218C31.944 56.287 32.0602 55.406 31.6194 54.6842C31.3453 54.226 30.8852 53.848 30.3891 53.5378C29.8824 53.2394 29.3422 52.9677 28.7677 52.7632C28.4108 52.6432 28.4643 52.5263 28.8317 52.4219C29.1861 52.3411 29.9154 52.2273 30.6583 52.5586C31.3067 52.8484 31.9452 53.2413 32.4624 53.8729C32.594 54.0244 32.6997 54.1982 32.7911 54.3824C32.9854 54.7739 33.1091 55.2004 33.1438 55.636C33.1494 55.8524 33.1121 56.0663 33.0897 56.2807C32.9256 57.1213 32.4886 57.7884 32.0148 58.3411C31.5374 58.9012 30.9753 59.3233 30.3972 59.7044C29.7034 60.1545 28.9841 60.5605 28.2312 60.9223C27.8544 61.1026 27.4677 61.2686 27.0667 61.4122C26.8684 61.4875 26.6533 61.5422 26.4482 61.6062L25.8495 61.7368C24.1037 62.1253 22.294 62.3286 20.4842 62.1763C19.372 62.0787 18.2654 61.8456 17.2116 61.4377C16.4158 61.12 15.6654 60.6699 15.0052 60.0992C14.3543 59.5185 13.8221 58.7694 13.5591 57.9003C13.3689 57.227 13.3403 56.4697 13.5697 55.7821C13.806 55.097 14.248 54.507 14.7752 54.0545C15.0077 53.8536 15.2433 53.6696 15.5075 53.5154C15.9949 53.2276 16.3611 53.1424 16.6185 53.1101C16.8809 53.0896 17.05 53.1493 17.2017 53.2742C17.2707 53.3296 17.3527 53.3787 17.3975 53.4371C17.5479 53.6392 17.1979 53.9301 16.6216 54.2938C15.7631 54.8222 15.0413 55.554 14.8442 56.3348C14.7248 56.724 14.7466 57.1082 14.838 57.5142C14.9486 57.9202 15.1867 58.3162 15.4777 58.6855C16.4002 59.7753 17.9284 60.431 19.5036 60.7025C19.5128 60.7041 19.5193 60.7126 19.5184 60.7219Z" fill="#231F20"/>
<path fill-rule="evenodd" clip-rule="evenodd" d="M17.8617 57.7819C17.8589 57.7899 17.8628 57.7986 17.8706 57.8019C18.7461 58.1667 19.719 58.4054 20.7141 58.5222C21.0796 58.567 21.4495 58.5608 21.8182 58.5751C23.12 58.6323 24.4511 58.5359 25.7262 58.2108C26.2901 58.0653 26.8446 57.8657 27.3526 57.6046C28.006 57.2627 28.5748 56.8213 29.0796 56.3308C29.24 56.1784 29.3594 56.2655 29.3818 56.5353C29.4178 56.8095 29.3047 57.2863 28.9329 57.6245C27.6137 58.7728 25.9811 59.3081 24.356 59.4672C23.3824 59.5599 22.3784 59.7091 21.3768 59.6805C20.2795 59.6475 19.176 59.5045 18.1135 59.162C17.4614 58.9518 16.8235 58.6708 16.2348 58.2916C15.7915 58.0013 15.3774 57.6488 15.0367 57.2248C14.8776 57.0041 14.7178 56.784 14.5991 56.5372C14.4629 56.3158 14.3634 55.9633 14.3697 55.6637C14.3765 55.1769 14.5624 54.7448 14.8005 54.3842C15.0423 54.0224 15.3457 53.7165 15.6957 53.4678C15.8474 53.3547 16.0053 53.2546 16.1794 53.1694C16.8434 52.8741 17.1468 52.9885 17.296 53.2509C17.3314 53.3118 17.3731 53.3702 17.3905 53.4299C17.4371 53.632 17.222 53.8166 16.9025 53.9926C16.415 54.2493 15.9562 54.6696 15.7069 55.1048C15.582 55.3199 15.5273 55.53 15.5397 55.6687C15.5416 55.7408 15.5633 55.7961 15.5913 55.8545C15.6249 55.9267 15.7181 56.0765 15.7747 56.1859C16.2094 56.8649 16.9708 57.4073 17.8525 57.7618C17.8604 57.765 17.8645 57.7739 17.8617 57.7819Z" fill="#231F20"/>
<path fill-rule="evenodd" clip-rule="evenodd" d="M21.436 63.4702C21.4348 63.4795 21.4408 63.4883 21.45 63.4904C22.2656 63.6798 23.1518 63.7081 24.0357 63.6284C24.362 63.606 24.6791 63.5153 25.0036 63.4618C26.1519 63.2747 27.2865 62.9172 28.372 62.4416C28.8482 62.2203 29.3039 61.9486 29.7167 61.6396C30.2619 61.2498 30.6959 60.7667 31.1441 60.3179C31.2952 60.1823 31.4301 60.2657 31.4941 60.5237C31.524 60.6511 31.5495 60.8376 31.5116 61.0316C31.4668 61.2113 31.3804 61.4096 31.2424 61.5874C30.2072 62.7413 28.9191 63.5681 27.4923 64.0039C26.6375 64.2489 25.7864 64.6051 24.8849 64.7611C23.9007 64.9396 22.8874 65.0024 21.8759 64.901C21.2554 64.8351 20.6306 64.6878 20.0456 64.4795C19.1584 64.1537 18.3204 63.6539 17.6253 63.0024C17.0826 62.5038 16.5834 61.943 16.2247 61.2846C16.1513 61.1379 16.0792 60.9937 16.0176 60.8401C15.838 60.2538 15.9405 60.0294 16.1867 59.8479C16.2433 59.8062 16.2943 59.7577 16.3484 59.7304C16.5218 59.639 16.7854 59.8137 17.0142 60.1326C17.3505 60.6082 17.6434 61.0565 17.9772 61.4674C18.3123 61.8771 18.7071 62.2302 19.1547 62.5293C19.8079 62.9676 20.6174 63.2888 21.4213 63.4497C21.4308 63.4516 21.4372 63.4606 21.436 63.4702Z" fill="#231F20"/>
<path fill-rule="evenodd" clip-rule="evenodd" d="M17.9966 25.3314C18.0049 25.3288 18.0104 25.3209 18.0098 25.3122C17.9884 25.0054 17.9869 24.6908 18.004 24.369L18.0407 23.8648L18.101 23.5011C18.1358 23.3699 18.1831 23.2431 18.2235 23.1138C18.3963 22.594 18.8004 22.2558 19.2791 22.157C19.7628 22.0612 20.267 22.2272 20.6549 22.5804C20.7488 22.6718 20.847 22.7656 20.9247 22.8695C21.0112 22.9739 21.0932 23.0752 21.1287 23.143C21.2275 23.2972 21.3058 23.4489 21.3804 23.6006C21.5284 23.9027 21.6422 24.2011 21.7441 24.4983C21.9362 25.0976 22.0973 25.7193 22.17 26.336C22.4765 28.8036 22.1053 31.2916 21.0255 33.5266C20.8271 33.9338 20.5952 34.3279 20.3391 34.7097C20.2092 34.9018 20.0351 35.0957 19.8822 35.286C19.7 35.4607 19.5147 35.6391 19.3065 35.7896C18.4554 36.4063 17.3152 36.5685 16.3808 36.3472C15.5408 36.175 14.7961 35.8188 14.1203 35.3935C13.4432 34.9633 12.8346 34.4629 12.2838 33.8809C11.7242 33.2804 11.2897 32.6214 10.9241 31.9214C10.5629 31.2207 10.2657 30.4803 10.1165 29.6789C9.96982 28.8881 9.94309 27.9997 10.3304 27.1772C10.5138 26.7774 10.7662 26.4193 11.133 26.1172C11.4924 25.8144 11.9947 25.6391 12.4715 25.654C13.4389 25.6864 14.1675 26.2689 14.7171 26.8004C15.2847 27.3531 15.7541 27.9798 16.1644 28.6307C17.6148 30.9521 18.4255 33.5558 19.1952 36.0556C19.6981 37.6702 20.1395 39.3283 20.4205 41.0218C20.5523 41.8698 20.6537 42.7252 20.6798 43.5844C20.7059 44.4442 20.6618 45.3028 20.5809 46.1532C20.4516 47.2139 20.295 47.0441 20.1302 46.152C20.0394 45.6758 19.9201 45.0578 19.7827 44.3404C19.6186 43.5999 19.4538 42.747 19.2965 41.8181C19.0155 40.1707 18.5461 38.558 18.0432 36.9341C17.5533 35.2916 17.064 33.6596 16.4697 32.1054C15.8741 30.5555 15.1498 29.0354 14.106 27.8567C13.8486 27.5639 13.5576 27.2854 13.2847 27.0976C13.0012 26.9105 12.6984 26.7948 12.4417 26.7955C12.1843 26.7886 11.9599 26.8806 11.7423 27.0908C11.5247 27.3022 11.34 27.6186 11.2468 27.9251C11.0049 28.7016 11.1915 29.6982 11.5583 30.5959C11.9232 31.5011 12.469 32.3845 13.1336 33.0796C13.8287 33.7833 14.6649 34.3889 15.5508 34.7905C16.4324 35.1722 17.4059 35.3537 18.1675 34.9975C18.5884 34.8147 18.9502 34.4927 19.2493 34.0886C19.5533 33.6491 19.8218 33.1703 20.0444 32.668C20.4771 31.6571 20.7656 30.5667 20.8881 29.4588C21.0217 28.351 20.9937 27.2238 20.7979 26.1402C20.6872 25.6037 20.5411 25.0746 20.3341 24.5686C20.2315 24.3193 20.1153 24.0805 19.9841 23.8754C19.8753 23.7044 19.82 23.6391 19.6925 23.5664C19.5421 23.4812 19.3531 23.5714 19.2934 23.7274C19.2605 23.8008 19.2325 23.8841 19.2207 23.9593C19.1933 24.0836 19.1628 24.2645 19.1573 24.4231C19.1249 25.0858 19.2001 25.7827 19.3295 26.4616C19.4606 27.1411 19.6484 27.8151 19.9107 28.4467C20.1669 29.0622 20.5157 29.7075 20.9614 30.0159C21.3301 30.2415 21.7852 30.3522 22.2222 30.2695C22.6649 30.1949 23.0994 29.9574 23.4805 29.6447C24.2384 29.0124 24.8458 28.1091 25.1367 27.1704C25.2803 26.7258 25.2847 26.2148 25.2207 25.7305C25.151 25.2537 24.977 24.7793 24.6916 24.5362C24.3963 24.2913 24.1016 24.2944 23.7901 24.5884C23.4768 24.8887 23.2213 25.3426 23.0286 25.8064C22.8694 26.1688 22.7768 26.5381 22.6854 26.9459C22.5828 27.3407 22.5144 27.7436 22.4485 28.1458C22.3298 28.9515 22.2583 29.7628 22.2409 30.5748C22.2042 32.1986 22.3273 33.8213 22.6089 35.4209C22.7333 36.1259 22.8881 36.8085 23.064 37.5061C23.3848 38.8017 23.6614 39.6341 23.8107 40.2366C23.9673 40.8365 23.9922 41.2108 23.9468 41.5465C23.9257 41.6994 23.9232 41.8928 23.8846 41.9953C23.7852 42.336 23.0155 41.4358 22.3254 39.4949C21.3264 36.6226 20.8265 33.4787 20.9633 30.2764C21.0062 29.4768 21.0814 28.673 21.2157 27.8722C21.2909 27.4737 21.3357 27.0684 21.432 26.6699L21.5638 26.0625C21.6223 25.8331 21.6907 25.6267 21.7665 25.4159C21.9226 24.9988 22.1072 24.5884 22.3783 24.1738C22.6493 23.7784 23.0112 23.2916 23.7988 23.0299C24.1743 22.9447 24.5921 22.9366 24.9459 23.1088C25.3195 23.2313 25.5856 23.4601 25.8026 23.7007C26.2328 24.1943 26.3938 24.7122 26.5051 25.1946C26.6425 25.9226 26.6599 26.5897 26.4752 27.36C26.2813 28.0612 25.9735 28.6581 25.6005 29.2145C25.2238 29.7666 24.7755 30.2732 24.2204 30.7022C23.6683 31.1231 22.9794 31.4837 22.165 31.5483C21.9667 31.5776 21.7566 31.5421 21.5545 31.5328C21.3525 31.5073 21.1566 31.4433 20.9602 31.3923C20.7762 31.3177 20.599 31.2294 20.4218 31.1424C20.2235 31.0261 20.0519 30.885 19.9083 30.7445C19.3612 30.1731 19.0802 29.5782 18.8296 28.9863C18.3615 27.8011 18.0814 26.6079 17.9834 25.3507C17.9827 25.342 17.9882 25.3339 17.9966 25.3314Z" fill="#231F20"/>
<path fill-rule="evenodd" clip-rule="evenodd" d="M42.6404 26.8287C42.6261 26.9375 42.4825 26.8896 42.2593 26.7578C42.1878 26.7162 42.0193 26.5427 42.0137 26.4998C42.0025 26.4165 41.9932 26.3338 41.9982 26.263C41.9982 26.2201 42.2804 25.7693 42.3805 25.6108C42.4738 25.456 42.5963 25.331 42.7293 25.2191C42.9935 24.9841 43.2764 24.7659 43.5754 24.567C43.642 24.5235 43.7166 24.4924 43.7961 24.4719C44.0734 24.4066 44.3122 24.2841 44.5484 24.1411C44.5882 24.1181 44.6342 24.1063 44.6566 24.0466C44.6858 23.9384 45.3964 23.6568 45.5046 23.6699C45.7638 23.6804 46.0113 23.6674 46.263 23.6991C46.2985 23.7034 46.3314 23.678 46.3718 23.7277C46.4645 23.8421 46.5316 23.811 46.6056 23.811C46.7069 23.8085 46.8101 23.8203 46.9133 23.8539C46.9643 23.8701 47.0184 23.9366 47.0694 23.9888C47.1154 24.0354 47.1036 24.2219 47.0911 24.2431C47.0538 24.3046 47.0936 24.3886 47.1023 24.465C47.1088 24.5181 47.0943 24.5681 47.0564 24.6058C47.0169 24.6453 46.9591 24.6985 46.898 24.7526C46.7215 24.9092 46.4859 25.0368 46.2661 25.1228C46.0933 25.1912 45.9186 25.2732 45.8857 25.2987C45.8131 25.348 45.7157 25.3155 45.6393 25.3586C45.6046 25.3781 45.565 25.4011 45.5245 25.4249C45.3313 25.5386 45.1359 25.7302 44.9164 25.6841C44.9072 25.6822 44.8977 25.6797 44.8878 25.6767C44.8574 25.6686 44.8394 25.6854 44.8195 25.6978C44.6485 25.8048 44.4527 25.8688 44.263 25.9534C44.1679 25.9987 44.0865 26.0659 43.9988 26.1237C43.9827 26.1343 43.9584 26.1324 43.9385 26.1374C43.9136 26.1436 43.8857 26.1455 43.8664 26.1604C43.6637 26.3059 43.4244 26.4122 43.254 26.6043C43.213 26.6441 42.9208 26.7367 42.8791 26.7933C42.8549 26.8225 42.646 26.784 42.6404 26.8287Z" fill="#231F20"/>
<path fill-rule="evenodd" clip-rule="evenodd" d="M36.6499 12.9762C36.635 13.0881 36.4827 13.0372 36.2502 12.9029C36.1762 12.86 36.0009 12.6822 35.994 12.638C35.981 12.551 35.9698 12.4646 35.9723 12.39C35.9723 12.3452 36.2427 11.8628 36.3335 11.6881C36.4193 11.5196 36.5362 11.3828 36.663 11.2585C36.9222 11.0067 37.1989 10.7761 37.4737 10.5547C37.5352 10.5062 37.6061 10.4689 37.6844 10.4466C37.953 10.367 38.1681 10.2178 38.3621 10.0431C38.3944 10.0139 38.4354 9.99583 38.4398 9.9293C38.451 9.81989 39.0037 9.41019 39.0932 9.38967C39.3257 9.34118 39.5346 9.25911 39.7547 9.18948C39.787 9.1814 39.8025 9.14659 39.8635 9.18016C40.0052 9.25849 40.0456 9.19943 40.1078 9.16959C40.1942 9.12732 40.2831 9.08877 40.3882 9.0695C40.4404 9.05955 40.5268 9.09437 40.6033 9.1155C40.6729 9.13478 40.7854 9.30947 40.7879 9.33683C40.7948 9.41454 40.8843 9.46925 40.9415 9.5339C40.9608 9.55566 40.9863 9.58426 40.9993 9.60353C41.293 9.99717 40.5626 10.5508 40.205 10.8874C40.1421 10.9465 40.0952 10.9919 40.0804 11.0098C40.0481 11.049 39.9872 11.049 39.935 11.0595C39.9101 11.067 39.4277 11.5233 39.4059 11.532C39.2841 11.5923 39.2026 11.708 39.0236 11.68C38.9881 11.6744 38.9695 11.6943 38.949 11.7111C38.7724 11.8522 38.561 11.9392 38.3608 12.0418C38.2601 12.0947 38.1787 12.1743 38.0867 12.2383C38.0699 12.2507 38.0431 12.2482 38.0226 12.2544C37.9959 12.2619 37.9654 12.2638 37.9455 12.2806C37.7454 12.4546 37.4811 12.5504 37.3046 12.7524C37.261 12.7935 36.9471 12.8836 36.9036 12.942C36.8775 12.9719 36.6561 12.9302 36.6499 12.9762Z" fill="#231F20"/>
<path fill-rule="evenodd" clip-rule="evenodd" d="M28.5989 66.1053C28.5926 66.1017 28.5845 66.1035 28.5803 66.1095C28.2529 66.5754 27.8645 67.0448 27.3486 67.4107C27.1528 67.5357 26.9694 67.6855 26.7431 67.7638C26.3546 67.9249 25.8976 67.9659 25.5016 67.9031C25.1 67.8422 24.7363 67.7054 24.4105 67.5288C24.1208 67.3734 23.841 67.2136 23.5749 67.0414C23.4065 66.9283 23.2336 66.8195 23.0776 66.6908C22.9278 66.554 22.8016 66.3911 22.6965 66.2127C22.6325 66.0996 22.7506 66.0075 22.9408 65.9541C23.3683 65.8405 23.7727 66.0886 24.1489 66.3213C24.5666 66.5797 24.9849 66.7968 25.4015 66.9575C25.7832 67.0949 26.1419 66.9898 26.4913 66.7965C26.8724 66.5901 27.2113 66.2475 27.5034 65.8415C27.6868 65.5947 27.8504 65.3199 28.007 65.0408C28.2389 64.6118 28.4733 64.1692 28.676 63.7116C28.8301 63.3554 28.9352 62.9737 29.1037 62.61C29.1416 62.5298 29.1702 62.4458 29.2144 62.3681C29.3959 62.0884 29.542 62.0548 29.8037 62.1623C29.8603 62.1847 29.9156 62.2003 29.9604 62.2227C30.0959 62.2873 30.2246 62.5379 30.1724 62.7548C30.0257 63.4057 29.754 64.0138 29.4288 64.6572C29.1932 65.131 28.9276 65.6145 28.618 66.1006C28.6139 66.107 28.6055 66.1091 28.5989 66.1053Z" fill="#231F20"/>
<path fill-rule="evenodd" clip-rule="evenodd" d="M20.1979 5.9281C20.2669 6.02571 20.132 6.11461 19.8889 6.19605C19.8112 6.22216 19.5744 6.22589 19.5377 6.19916C19.4681 6.14694 19.3978 6.09471 19.3462 6.04125C19.3182 6.00705 19.128 5.48234 19.0366 5.31013C18.9539 5.14165 18.9104 4.97193 18.8743 4.80159C18.8022 4.45592 18.6959 4.1171 18.6356 3.77392C18.6201 3.69807 18.6219 3.61974 18.6356 3.53954C18.686 3.26289 18.6387 2.99866 18.5498 2.74253C18.5349 2.69963 18.5336 2.653 18.4715 2.6213C18.4473 2.60979 18.4198 2.56493 18.3922 2.50111C18.1891 2.03204 18.2881 1.50445 18.3527 0.997423C18.3571 0.961365 18.3303 0.93028 18.3838 0.885518C18.5082 0.780451 18.464 0.715173 18.4727 0.636218C18.4746 0.608577 18.4764 0.580894 18.4786 0.553066C18.4916 0.386109 18.5791 0.243305 18.6791 0.109019C18.7226 0.0505794 18.8488 0.0443625 18.8725 0.0549313C18.9303 0.0885029 18.9893 0.0344153 19.0428 0.0163861C19.0615 0.0101692 19.0857 0.0020871 19.1031 0.000222013C19.1319 -0.00525261 19.2824 0.0913 19.4345 0.203724C19.6866 0.390158 19.8488 0.674797 19.9747 0.961987C20.0717 1.18269 20.1774 1.41396 20.2048 1.45997C20.2627 1.55406 20.225 1.67724 20.2602 1.78194C20.3316 1.99373 20.4495 2.34442 20.4491 2.3664C20.4559 2.51685 20.5312 2.65798 20.4236 2.8277C20.4031 2.86127 20.4143 2.88987 20.4211 2.91971C20.4758 3.17212 20.4572 3.43696 20.4528 3.69683C20.4503 3.82987 20.4802 3.95919 20.4808 4.09161C20.4814 4.11523 20.4634 4.14072 20.4559 4.16559C20.4466 4.19667 20.4311 4.22838 20.4329 4.25822C20.4547 4.56845 20.395 4.88427 20.4416 5.19015C20.4516 5.26102 20.3198 5.6073 20.3366 5.68688C20.3446 5.73289 20.1687 5.88955 20.1979 5.9281Z" fill="#231F20"/>
<path fill-rule="evenodd" clip-rule="evenodd" d="M0.0686539 7.01909C-0.0637675 7.00168 0.0039974 6.8245 0.197967 6.56525C0.259515 6.48256 0.496381 6.28611 0.54736 6.2774C0.64621 6.25937 0.742573 6.24259 0.820907 6.24072C0.866912 6.24445 1.31889 6.48443 1.4911 6.53541C1.65149 6.59385 1.78205 6.68213 1.90763 6.77849L2.70651 7.33615C2.7662 7.37781 2.81593 7.43314 2.86069 7.49904C3.0099 7.72906 3.22376 7.87516 3.45939 7.98831C3.49855 8.00696 3.5315 8.03867 3.59492 8.01567C3.69501 7.97961 4.30676 8.3433 4.36893 8.42661C4.51689 8.63177 4.68786 8.8046 4.85074 8.99297C4.87437 9.01971 4.91602 9.02095 4.91105 9.09058C4.89924 9.2516 4.97384 9.26776 5.03166 9.31377C5.11124 9.37843 5.1877 9.45054 5.24987 9.54442C5.28096 9.59042 5.28096 9.68679 5.28904 9.76885C5.29712 9.84346 5.16408 10.0175 5.13859 10.03C5.06399 10.0654 5.04285 10.1723 4.99995 10.2525C4.98565 10.2793 4.96638 10.3141 4.95208 10.3346C4.91913 10.3781 4.23402 10.4111 4.18056 10.3781C4.17434 10.375 3.97477 10.2942 3.76215 10.2065C3.54953 10.1214 3.32572 10.0331 3.27599 10.02C3.22439 10.007 3.19765 9.95163 3.16408 9.90749C3.14978 9.89133 2.4883 9.63643 2.46529 9.61591C2.34966 9.52701 2.19423 9.49344 2.14139 9.30693C2.13144 9.27025 2.10222 9.25968 2.07673 9.24663C1.85168 9.12602 1.66828 8.94199 1.47991 8.76668C1.3823 8.6784 1.26666 8.6125 1.1616 8.53292C1.14295 8.51862 1.13611 8.48878 1.12243 8.46764C1.10502 8.44153 1.09383 8.40609 1.07021 8.38868C0.821529 8.19782 0.633154 7.93795 0.37142 7.7558C0.307385 7.71539 0.174342 7.35791 0.105334 7.31128C0.0636803 7.28455 0.120255 7.02593 0.0686539 7.01909Z" fill="#231F20"/>
</svg>
